<?xml version="1.0" encoding="utf-8"?>
<!-- Generator: Adobe Illustrator 15.1.0, SVG Export Plug-In . SVG Version: 6.00 Build 0)  -->
<!DOCTYPE svg PUBLIC "-//W3C//DTD SVG 1.1//EN" "http://www.w3.org/Graphics/SVG/1.1/DTD/svg11.dtd">
<svg version="1.1" id="Layer_1" xmlns="http://www.w3.org/2000/svg" xmlns:xlink="http://www.w3.org/1999/xlink" x="0px" y="0px"
	 width="222.229px" height="310.812px" viewBox="0 0 222.229 310.812" enable-background="new 0 0 222.229 310.812"
	 xml:space="preserve">
<g id="g9798" transform="translate(268.10452,-278.14757)">
	<path id="rect9800" fill="#FFFFFF" stroke="#010101" d="M-257.728,278.148h200.969c5.871,0,10.63,4.759,10.63,10.63v289.551
		c0,5.871-4.759,10.63-10.63,10.63h-200.969c-5.871,0-10.63-4.759-10.63-10.63V288.777
		C-268.357,282.906-263.599,278.148-257.728,278.148z"/>
	
		<rect id="rect9802" x="-255.77" y="290.231" fill="none" stroke="#262964" stroke-width="4.9524" stroke-linecap="round" width="197.052" height="286.645"/>
	<rect id="rect9804" x="-249.243" y="296.006" fill="#262964" width="184" height="275.094"/>
	<g id="g9806" transform="matrix(0.80775967,0,0,1,-221.15484,-1686.1765)">
		
			<path id="path9808" inkscape:connector-curvature="0" sodipodi:nodetypes="cccccccc" opacity="0.98" fill="#FFFFFF" stroke="#FFFFFF" stroke-width="3.338" enable-background="new    " d="
			M-0.494,2008.232v169.881l10.528,20l10.527-20v-169.881l-3.458-3.689H3.491L-0.494,2008.232z"/>
		<polygon id="rect9810" fill="none" stroke="#FFFFFF" stroke-width="2.2417" points="10.034,2096.705 29.583,2073.491 
			10.034,2050.277 -9.518,2073.491 		"/>
		<polygon id="rect9812" fill="none" stroke="#262964" stroke-width="2.3006" points="10.034,2058.572 43.602,2035.357 
			10.034,2012.143 -23.536,2035.357 		"/>
		<polygon id="rect9814" fill="#FFFFFF" stroke="#262964" stroke-width="2.2417" points="10.034,2098.315 29.583,2075.102 
			10.034,2051.887 -9.518,2075.102 		"/>
		<polygon id="rect9816" fill="#FFFFFF" stroke="#262964" stroke-width="2.3006" points="10.034,2060.183 43.602,2036.969 
			10.034,2013.754 -23.536,2036.969 		"/>
		
			<path id="path9818" inkscape:connector-curvature="0" sodipodi:nodetypes="cccccc" opacity="0.99" fill="#262964" stroke="#262964" stroke-width="2.2253" enable-background="new    " d="
			M3.241,2099.107l1.411-1.751l1.41,1.751v108.365H3.241V2099.107z"/>
		
			<path id="path9820" inkscape:connector-curvature="0" sodipodi:nodetypes="cccccc" opacity="0.99" fill="#262964" stroke="#262964" stroke-width="2.2253" enable-background="new    " d="
			M14.007,2099.107l1.41-1.751l1.411,1.751v108.365h-2.821V2099.107z"/>
	</g>
	<g id="g9822" transform="matrix(0.80775967,0,0,-1,-109.54054,2778.7137)">
		
			<path id="path9824" inkscape:connector-curvature="0" sodipodi:nodetypes="cccccccc" opacity="0.98" fill="#FFFFFF" stroke="#FFFFFF" stroke-width="3.338" enable-background="new    " d="
			M-0.494,2233.664v169.881l10.527,20l10.528-20v-169.881l-3.458-3.689H3.491L-0.494,2233.664z"/>
		<polygon id="rect9826" fill="none" stroke="#FFFFFF" stroke-width="2.2417" points="10.033,2322.136 29.584,2298.922 
			10.033,2275.708 -9.516,2298.922 		"/>
		<polygon id="rect9828" fill="none" stroke="#262964" stroke-width="2.3006" points="10.033,2284.003 43.602,2260.789 
			10.033,2237.575 -23.536,2260.789 		"/>
		<polygon id="rect9830" fill="#FFFFFF" stroke="#262964" stroke-width="2.2417" points="10.033,2323.747 29.584,2300.533 
			10.033,2277.318 -9.516,2300.533 		"/>
		<polygon id="rect9832" fill="#FFFFFF" stroke="#262964" stroke-width="2.3006" points="10.033,2285.614 43.602,2262.4 
			10.033,2239.185 -23.536,2262.4 		"/>
		
			<path id="path9834" inkscape:connector-curvature="0" sodipodi:nodetypes="cccccc" opacity="0.99" fill="#262964" stroke="#262964" stroke-width="2.2253" enable-background="new    " d="
			M3.241,2324.539l1.411-1.751l1.411,1.751v108.365H3.241V2324.539z"/>
		
			<path id="path9836" inkscape:connector-curvature="0" sodipodi:nodetypes="cccccc" opacity="0.99" fill="#262964" stroke="#262964" stroke-width="2.2253" enable-background="new    " d="
			M14.005,2324.539l1.411-1.751l1.411,1.751v108.365h-2.822V2324.539z"/>
	</g>
	<g id="g9838" transform="translate(-1.2985206e-6,-1.9239678e-6)">
		<g id="g9840" transform="matrix(0.79222457,0,0,0.79222457,538.1532,114.39727)">
			<path id="rect9842" fill="#FFFFFF" d="M-899.575,409.753l38.668-22.325c6.417-3.705,12.724-4.798,14.086-2.439l0,0
				c1.361,2.358-2.739,7.273-9.156,10.978l-38.668,22.325c-6.417,3.705-12.724,4.798-14.086,2.439l0,0
				C-910.092,418.373-905.993,413.459-899.575,409.753z"/>
			<circle id="circle9844" fill="#FFFFFF" cx="-877.776" cy="402.86" r="20.512"/>
			<path id="rect9846" fill="#FFFFFF" d="M-870.883,424.66l-22.325-38.669c-3.705-6.417-4.798-12.724-2.439-14.086l0,0
				c2.358-1.361,7.273,2.738,10.978,9.155l22.326,38.669c3.704,6.417,4.796,12.724,2.438,14.086l0,0
				C-862.262,435.176-867.178,431.077-870.883,424.66z"/>
			<circle id="circle9848" fill="#262964" cx="-877.776" cy="402.86" r="13.424"/>
		</g>
		
			<rect id="rect9850" x="-161.839" y="428.957" transform="matrix(-0.866 0.5 -0.5 -0.866 -76.6426 887.6423)" fill="#FFFFFF" width="9.191" height="9.193"/>
	</g>
	
		<rect id="rect9852" x="-255.77" y="290.231" fill="none" stroke="#262964" stroke-width="4.9524" stroke-linecap="round" width="197.052" height="286.645"/>
	<rect id="rect9854" x="-249.243" y="296.006" fill="#262964" width="184" height="275.094"/>
	<g id="g9856" transform="matrix(0.80775967,0,0,1,-221.15484,-1686.1765)">
		
			<path id="path9858" inkscape:connector-curvature="0" sodipodi:nodetypes="cccccccc" opacity="0.98" fill="#FFFFFF" stroke="#FFFFFF" stroke-width="3.338" enable-background="new    " d="
			M-0.494,2008.232v169.881l10.528,20l10.527-20v-169.881l-3.458-3.689H3.491L-0.494,2008.232z"/>
		<polygon id="rect9860" fill="none" stroke="#FFFFFF" stroke-width="2.2417" points="10.034,2096.705 29.583,2073.491 
			10.034,2050.277 -9.518,2073.491 		"/>
		<polygon id="rect9862" fill="none" stroke="#262964" stroke-width="2.3006" points="10.034,2058.572 43.602,2035.357 
			10.034,2012.144 -23.536,2035.357 		"/>
		<polygon id="rect9864" fill="#FFFFFF" stroke="#262964" stroke-width="2.2417" points="10.034,2098.315 29.583,2075.102 
			10.034,2051.887 -9.518,2075.102 		"/>
		<polygon id="rect9866" fill="#FFFFFF" stroke="#262964" stroke-width="2.3006" points="10.034,2060.183 43.602,2036.969 
			10.034,2013.754 -23.536,2036.969 		"/>
		
			<path id="path9868" inkscape:connector-curvature="0" sodipodi:nodetypes="cccccc" opacity="0.99" fill="#262964" stroke="#262964" stroke-width="2.2253" enable-background="new    " d="
			M3.241,2099.107l1.411-1.751l1.41,1.751v108.365H3.241V2099.107z"/>
		
			<path id="path9870" inkscape:connector-curvature="0" sodipodi:nodetypes="cccccc" opacity="0.99" fill="#262964" stroke="#262964" stroke-width="2.2253" enable-background="new    " d="
			M14.007,2099.107l1.41-1.751l1.411,1.751v108.365h-2.821V2099.107z"/>
	</g>
	<g id="g9872" transform="matrix(0.80775967,0,0,-1,-109.54054,2778.7137)">
		
			<path id="path9874" inkscape:connector-curvature="0" sodipodi:nodetypes="cccccccc" opacity="0.98" fill="#FFFFFF" stroke="#FFFFFF" stroke-width="3.338" enable-background="new    " d="
			M-0.494,2233.664v169.881l10.527,20l10.528-20v-169.881l-3.458-3.689H3.491L-0.494,2233.664z"/>
		<polygon id="rect9876" fill="none" stroke="#FFFFFF" stroke-width="2.2417" points="10.033,2322.136 29.584,2298.922 
			10.033,2275.708 -9.517,2298.922 		"/>
		<polygon id="rect9878" fill="none" stroke="#262964" stroke-width="2.3006" points="10.033,2284.003 43.602,2260.789 
			10.033,2237.575 -23.536,2260.789 		"/>
		<polygon id="rect9880" fill="#FFFFFF" stroke="#262964" stroke-width="2.2417" points="10.033,2323.747 29.584,2300.533 
			10.033,2277.318 -9.517,2300.533 		"/>
		<polygon id="rect9882" fill="#FFFFFF" stroke="#262964" stroke-width="2.3006" points="10.033,2285.614 43.602,2262.4 
			10.033,2239.185 -23.536,2262.4 		"/>
		
			<path id="path9884" inkscape:connector-curvature="0" sodipodi:nodetypes="cccccc" opacity="0.99" fill="#262964" stroke="#262964" stroke-width="2.2253" enable-background="new    " d="
			M3.241,2324.539l1.411-1.751l1.411,1.751v108.365H3.241V2324.539z"/>
		
			<path id="path9886" inkscape:connector-curvature="0" sodipodi:nodetypes="cccccc" opacity="0.99" fill="#262964" stroke="#262964" stroke-width="2.2253" enable-background="new    " d="
			M14.005,2324.539l1.411-1.751l1.411,1.751v108.365h-2.822V2324.539z"/>
	</g>
	<g id="g9888" transform="translate(-343.96633,6.1716292)">
		<path fill="none" d=""/>
		<path id="path5853-6_3_" inkscape:connector-curvature="0" fill="#FFFFFF" stroke="#FFFFFF" d="M173.861,449.66
			c2.343,1.353,3.146,4.352,1.793,6.693c-1.353,2.343-4.351,3.146-6.693,1.794s-3.146-4.352-1.794-6.693
			C168.52,449.111,171.518,448.307,173.861,449.66z"/>
		<path id="path5080-9_3_" inkscape:connector-curvature="0" fill="#FFFFFF" stroke="#FFFFFF" d="M204.486,396.616
			c2.343,1.353,3.146,4.352,1.793,6.693c-1.353,2.343-4.351,3.146-6.693,1.794s-3.146-4.352-1.794-6.693
			C199.145,396.067,202.143,395.263,204.486,396.616z"/>
		<path id="path9890" inkscape:connector-curvature="0" fill="#FFFFFF" stroke="#FFFFFF" d="M202.084,400.775"/>
		<circle id="circle9892" fill="#FFFFFF" cx="186.723" cy="427.381" r="16.25"/>
		<circle id="circle9894" fill="#262964" cx="186.723" cy="427.381" r="10.635"/>
		
			<rect id="rect9896" x="183.317" y="423.975" transform="matrix(-0.5 0.866 -0.866 -0.5 650.2101 479.3448)" fill="#FFFFFF" width="6.813" height="6.813"/>
	</g>
</g>
</svg>
